<?xml version="1.0" encoding="utf-8"?>
<!-- Generator: Adobe Illustrator 25.2.0, SVG Export Plug-In . SVG Version: 6.00 Build 0)  -->
<svg version="1.1"
	 id="Layer_1" image-rendering="optimizeQuality" shape-rendering="geometricPrecision" text-rendering="geometricPrecision"
	 xmlns="http://www.w3.org/2000/svg" xmlns:xlink="http://www.w3.org/1999/xlink" x="0px" y="0px" viewBox="0 0 512 231.2"
	 style="enable-background:new 0 0 512 231.2;" xml:space="preserve">
<style type="text/css">
	.st0{fill-rule:evenodd;clip-rule:evenodd;}
	.st1{fill:none;stroke:#000000;stroke-width:5;stroke-linecap:round;stroke-miterlimit:10;}
</style>
<path class="st0" d="M290.4,138.8c-0.7-5.8,16.5-28.1,19.7-38.7c6.8-10.7,9.1-27.8,1.8-39.2c-2.9-4.5-1.7-8.4-1.7-14.6
	c0-61.8-108.2-61.8-108.2,0c0,7.8,1.8,9.6-2.4,15.8c-7.1,10.3-3.4,28.5,2.5,38c3.8,11.2,21.9,32.4,20.7,38.7
	C221.6,170.6,290.6,169.5,290.4,138.8L290.4,138.8z M97.4,201h-3.1c-2.8,0-5-2.3-5-5v-8.1c0-2.8,2.3-5,5-5h18.1c2.8,0,5,2.3,5,5v8.1
	c0,2.8-2.3,5-5,5h-3.1l5.9,30.2H91.7C91.7,231.2,97.4,201,97.4,201z M129.1,157c-0.6-4.7,13.3-22.5,15.9-31.1
	c5.4-8.6,7.4-22.3,1.4-31.5c-2.4-3.6-1.3-6.8-1.3-11.8c0-49.6-87-49.7-87,0c0,6.3,1.4,7.8-2,12.7c-5.7,8.2-2.8,22.9,2,30.6
	c3.1,9,17.6,26,16.6,31.1C73.9,182.5,129.3,181.6,129.1,157z M61.6,171.8c-10.7,6.8-25.9,12.5-38,16.5c-23.8,7.9-23.7,9-23.6,42.9
	h84.2C84.2,231.2,61.6,171.8,61.6,171.8z M131.1,231.2c2.9-37.9-4.5-36.3,27.2-48.1c15.9-5.9,29.9-13.4,44.5-22.5l27.2,70.7H131.1z
	 M305.7,157.3c13.3,8.5,26,15.5,41.1,20.5c29.6,9.9,29.5,11.2,29.3,53.4h-98.5L305.7,157.3z M414.6,201h3.1c2.7,0,5-2.3,5-5v-8.1
	c0-2.8-2.3-5-5-5h-18.1c-2.8,0-5,2.3-5,5v8.1c0,2.8,2.3,5,5,5h3.1l-6,30.2h23.6L414.6,201L414.6,201z M382.9,157
	c0.6-4.7-13.3-22.5-15.8-31.1c-5.4-8.6-7.4-22.3-1.4-31.5c2.4-3.6,1.3-6.8,1.3-11.8c0-49.6,87-49.7,87,0c0,6.3-1.4,7.8,2,12.7
	c5.7,8.2,2.8,22.9-2,30.6c-3.1,9-17.6,26-16.6,31.1C438.1,182.5,382.7,181.6,382.9,157z M450.4,171.8c10.7,6.8,25.9,12.5,38,16.5
	c23.8,7.9,23.7,9,23.6,42.9h-84.1L450.4,171.8L450.4,171.8z M246.1,193.7h-3.8c-3.4,0-6.2-2.8-6.2-6.2v-10.1c0-3.4,2.8-6.2,6.2-6.2
	h22.6c3.4,0,6.2,2.8,6.2,6.2v10.1c0,3.4-2.8,6.2-6.2,6.2H261l7.4,37.6H239L246.1,193.7L246.1,193.7z"/>
<line class="st1" x1="474.7" y1="10.7" x2="474.7" y2="64.1"/>
<line class="st1" x1="501.4" y1="37.4" x2="448" y2="37.4"/>
</svg>
