<svg xmlns="http://www.w3.org/2000/svg" viewBox="0 0 306.83 306.81"><g id="Layer_2" data-name="Layer 2"><g id="Layer_1-2" data-name="Layer 1"><path d="M255.69,306.74c-8.35,0-16.2.09-24-.11-.94,0-2.18-1.39-2.72-2.43-3.5-6.74-6.94-13.52-10.21-20.38a4,4,0,0,0-4.25-2.66q-86.65.09-173.3,0c-2.28,0-3.28.92-4.19,2.79-3.2,6.61-6.67,13.1-9.77,19.76-1.13,2.44-2.56,3.17-5.14,3.11-7.2-.17-14.4-.06-22-.06v-4.41c0-23.32.12-46.65,0-70-.09-13.6,5.78-24.77,13.61-35.22.5-.67,2.22-.94,3.19-.68a435.13,435.13,0,0,0,72.46,12.69c32.68,2.86,65.33,2.5,97.77-2.49,17.33-2.67,34.47-6.64,51.66-10.19,2.08-.43,3-.05,4.27,1.59,9.3,12,13.33,25.45,12.89,40.77-.61,21.06-.16,42.16-.16,63.24Zm-89.63-70.07H89.91v18.7h76.15Zm-102.28,0H32.23v18.57H63.78Zm128.05,18.59h31.73V236.75H191.83Z"/><path d="M230.27,153.37a76.69,76.69,0,1,1,76.56-76.72A76.73,76.73,0,0,1,230.27,153.37Zm9.45-114.6h-19.4V67.38H192V86.24h4.3c7.11,0,14.22.08,21.33,0,2.27,0,3.06.71,3,3-.12,6.48,0,13,0,19.45v6.19H239.7V86.16h28.54v-19H239.72Z"/><path d="M0,153.37c10.24,0,20.08-.31,29.89.14,4.49.21,6.17-1.47,7.56-5.39,4-11.26,8.34-22.4,12.77-33.5A6.32,6.32,0,0,1,54,111.34a299.63,299.63,0,0,1,74.43-9c2.73,0,3.2,1.38,3.85,3.38,11.52,35.63,35.19,59,71.14,69.48,7.83,2.28,16.11,3,24.34,4.44-8,1.7-16.06,3.59-24.19,5.1A420.87,420.87,0,0,1,89.6,190c-28.41-2.46-56.1-8.72-83.6-16-5.95-1.57-6-1.55-6-7.68Z"/></g></g></svg>