<?xml version="1.0" encoding="utf-8"?>
<!-- Generator: Adobe Illustrator 25.2.0, SVG Export Plug-In . SVG Version: 6.00 Build 0)  -->
<svg version="1.1" id="Layer_1" xmlns="http://www.w3.org/2000/svg" xmlns:xlink="http://www.w3.org/1999/xlink" x="0px" y="0px"
	 viewBox="0 0 306.8 306.8" style="enable-background:new 0 0 306.8 306.8;" xml:space="preserve">
<style type="text/css">
	.st0{fill:#FFFFFF;}
</style>
<circle cx="229.9" cy="76.7" r="76.7"/>
<g id="Layer_2_1_">
	<g id="Layer_1-2">
		<path d="M255.7,306.7c-8.4,0-16.2,0.1-24-0.1c-0.9,0-2.2-1.4-2.7-2.4c-3.5-6.7-6.9-13.5-10.2-20.4c-0.6-1.8-2.4-2.9-4.2-2.7
			c-57.8,0.1-115.5,0.1-173.3,0c-2.3,0-3.3,0.9-4.2,2.8c-3.2,6.6-6.7,13.1-9.8,19.8c-1.1,2.4-2.6,3.2-5.1,3.1
			c-7.2-0.2-14.4-0.1-22-0.1v-4.4c0-23.3,0.1-46.6,0-70c-0.1-13.6,5.8-24.8,13.6-35.2c0.5-0.7,2.2-0.9,3.2-0.7
			c23.8,6.3,48,10.5,72.5,12.7c32.7,2.9,65.3,2.5,97.8-2.5c17.3-2.7,34.5-6.6,51.7-10.2c2.1-0.4,3-0.1,4.3,1.6
			c9.3,12,13.3,25.4,12.9,40.8c-0.6,21.1-0.2,42.2-0.2,63.2L255.7,306.7z M166.1,236.7H89.9v18.7h76.1V236.7z M63.8,236.7H32.2v18.6
			h31.5V236.7z M191.8,255.3h31.7v-18.5h-31.7V255.3z"/>
		<path d="M0,153.4c10.2,0,20.1-0.3,29.9,0.1c4.5,0.2,6.2-1.5,7.6-5.4c4-11.3,8.3-22.4,12.8-33.5c0.8-1.6,2.1-2.8,3.8-3.3
			c24.3-6.1,49.3-9.1,74.4-9c2.7,0,3.2,1.4,3.9,3.4c11.5,35.6,35.2,59,71.1,69.5c7.8,2.3,16.1,3,24.3,4.4c-8,1.7-16.1,3.6-24.2,5.1
			c-37.6,6.9-75.9,8.7-114,5.3c-28.4-2.5-56.1-8.7-83.6-16c-5.9-1.6-6-1.6-6-7.7V153.4z"/>
	</g>
</g>
<g>
	<path class="st0" d="M194,93.8l-1.8,16c-0.3,2.7,2,4.9,4.6,4.6l15.9-1.8l36.1-36.1l-18.8-18.8L194,93.8z"/>
	<path class="st0" d="M265.7,50.8l-9.9-9.9c-2.4-2.4-6.4-2.4-8.8,0l-9.9,9.9l-1.1,1.1l18.8,18.8l10.9-10.9
		C268.2,57.2,268.2,53.2,265.7,50.8z"/>
</g>
</svg>
