<?xml version="1.0" encoding="utf-8"?>
<!-- Generator: Adobe Illustrator 25.2.0, SVG Export Plug-In . SVG Version: 6.00 Build 0)  -->
<svg version="1.1" id="Layer_1" xmlns="http://www.w3.org/2000/svg" xmlns:xlink="http://www.w3.org/1999/xlink" x="0px" y="0px"
	 viewBox="0 0 386.4 431.1" style="enable-background:new 0 0 386.4 431.1;" xml:space="preserve">
<style type="text/css">
	.st0{fill:#FFFFFF;}
</style>
<g id="Layer_2_1_">
	<g id="Layer_1-2">
		<path d="M330.5,247.6c-12.2-4.7-25.3-6.8-38.4-5.9c-34.8,2-61.6,18.1-79.9,47.8c-10.1,16.1-14.8,35-13.6,53.9
			c1,15.7,4.7,29.7,11.1,41.9c-54.1,2-108.3-1.5-161.8-10.4l-37.8-6.3c-0.1-3.3-0.2-6.9-0.2-10.5c0-30.5,4-72,14.5-97.7
			c7.8-19.1,19-35.6,37.9-45.7c11.4-6.2,24.2-9.2,37.2-8.9c4.1,0.1,8.5,2.2,12.2,4.2c6,3.3,11.7,7.4,17.5,11
			c34.2,21.1,68.4,21.1,102.6-0.1c4.8-2.9,9.6-5.8,14-9.1c8.2-6.1,17.2-6.9,26.9-5.5C299.2,210.1,317.9,224.6,330.5,247.6z"/>
		<path d="M276.5,106.3c0.4,53.9-44.1,98.6-98.3,98.7s-98.8-44.5-98.8-98.2C79.3,52.5,123.2,8.2,177.5,8
			C232,7.6,276.1,51.5,276.5,106.3z"/>
	</g>
</g>
<path d="M380.3,331.7v10c-0.1,0.5-0.2,1-0.3,1.5c-0.7,11.8-4.1,23.3-9.8,33.7c-13.3,24.1-33.5,38.8-60.5,44
	c-3.2,0.6-6.6,0.9-9.9,1.4h-10c-0.4-0.1-0.9-0.2-1.3-0.3c-10.4-0.6-20.5-3.2-29.8-7.8c-30.4-15.2-47-39.9-49.2-73.9
	c-1.1-16.6,3-33.1,11.9-47.1c16-26,39.4-40,69.9-41.8c15.2-0.9,30.4,2.5,43.7,9.9c24.1,13.3,38.8,33.4,44,60.6
	C379.6,325.1,379.9,328.4,380.3,331.7z M354.8,315.3c-7.6-23.1-32.1-44.3-63.5-42.6c-30.6,1.7-50.9,24.4-56.3,42.6H354.8z
	 M230.8,336.7c-0.3,33.8,26.7,59.4,53.1,62.7c0-0.2,0.1-0.4,0.1-0.6c-0.2-7.7-1.5-15.4-4.1-22.7c-5.2-14.6-14-26.5-27.9-34
	C245.6,338.6,238.3,336.7,230.8,336.7L230.8,336.7z M305.3,399.7c15.7-2.9,28.4-10,38.3-21.7s15.1-25.6,15.3-41.4
	c-2.1,0.1-4,0.2-5.9,0.4c-13.5,2-24.1,8.8-32.6,19.4c-6.7,8.4-11.3,18.4-13.2,29C306.4,390,305.9,394.7,305.3,399.7L305.3,399.7z
	 M305.5,336.7c0-5.9-4.8-10.7-10.7-10.7c-5.9,0-10.7,4.8-10.7,10.7c0,5.9,4.7,10.6,10.6,10.7C300.7,347.4,305.5,342.6,305.5,336.7
	C305.5,336.7,305.5,336.7,305.5,336.7L305.5,336.7z"/>
<path class="st0" d="M354.8,315.3H234.9c5.4-18.1,25.7-40.9,56.3-42.6C322.7,271,347.2,292.1,354.8,315.3z"/>
<path class="st0" d="M230.9,336.7c7.4,0,14.7,1.8,21.2,5.3c13.9,7.5,22.6,19.4,27.9,34c2.5,7.3,3.9,15,4.1,22.7c0,0.2,0,0.4-0.1,0.6
	C257.5,396.1,230.5,370.5,230.9,336.7z"/>
<path class="st0" d="M305.3,399.7c0.7-5,1-9.7,1.9-14.3c2-10.6,6.5-20.5,13.2-29c8.4-10.5,19.1-17.4,32.6-19.4
	c1.9-0.3,3.8-0.3,5.9-0.4c-0.2,15.7-5.2,29.5-15.3,41.4S321,396.9,305.3,399.7z"/>
<path class="st0" d="M305.5,336.7c0,5.9-4.8,10.7-10.7,10.7c-5.9,0-10.7-4.8-10.7-10.7c0-5.9,4.8-10.7,10.7-10.7c0,0,0.1,0,0.1,0
	C300.8,326.1,305.5,330.8,305.5,336.7z"/>
</svg>
