<?xml version="1.0" encoding="utf-8"?>
<!-- Generator: Adobe Illustrator 25.2.0, SVG Export Plug-In . SVG Version: 6.00 Build 0)  -->
<svg version="1.1" id="Layer_1" xmlns="http://www.w3.org/2000/svg" xmlns:xlink="http://www.w3.org/1999/xlink" x="0px" y="0px"
	 viewBox="0 0 122.9 106.2" style="enable-background:new 0 0 122.9 106.2;" xml:space="preserve">
<style type="text/css">
	.st0{fill-rule:evenodd;clip-rule:evenodd;}
</style>
<path class="st0" d="M0,106.2V89c9.2-4.1,37.3-11.9,38.6-23.1c0.3-2.5-5.7-12.2-7.1-16.8c-2.9-4.7-4-12.1-0.8-17.1
	c1.3-2,0.7-9.1,0.7-11.8c0-26.9,47.2-26.9,47.2,0c0,3.4-0.8,9.7,1.1,12.3c3.1,4.5,1.5,12.4-1.1,16.6c-1.7,4.9-8,14.1-7.5,16.8
	c2,10.3,28.1,17.2,36.3,20.8v19.4L0,106.2L0,106.2z M89.8,55.9L89,62.4c-0.1,1.1,0.8,2,1.9,1.9l6.5-0.7l14.8-14.8l-7.7-7.7
	L89.8,55.9z M119.2,38.2l-4.1-4.1c-1-1-2.6-1-3.6,0l-4.1,4.1l-0.4,0.4l7.7,7.7l4.5-4.5C120.2,40.8,120.2,39.2,119.2,38.2z"/>
</svg>
