<?xml version="1.0" encoding="utf-8"?>
<!-- Generator: Adobe Illustrator 25.2.0, SVG Export Plug-In . SVG Version: 6.00 Build 0)  -->
<svg version="1.1" id="Layer_1" xmlns="http://www.w3.org/2000/svg" xmlns:xlink="http://www.w3.org/1999/xlink" x="0px" y="0px"
	 viewBox="0 0 250 250" style="enable-background:new 0 0 250 250;" xml:space="preserve">
<style type="text/css">
	.st0{fill:#FB9933;}
</style>
<path class="st0" d="M150.7,10c-16.4,0-30.5,5-40.4,14.8S95,49.1,95,66.8V90H65c-2.8,0-5,2.2-5,5v40c0,2.8,2.2,5,5,5h30v95
	c0,2.8,2.2,5,5,5h40c2.8,0,5-2.2,5-5v-95h35c2.5,0,4.6-1.9,5-4.4l5-40c0.3-2.7-1.6-5.2-4.3-5.6c-0.2,0-0.4,0-0.6,0h-40V70
	c0-5.6,4.4-10,10-10h30c2.8,0,5-2.2,5-5V16.7c0-2.5-1.9-4.6-4.3-5C181.2,11.2,165.3,10,150.7,10z M150.7,20c12.2,0,24,1,29.3,1.5V50
	h-25c-11,0-20,9-20,20v25c0,2.8,2.2,5,5,5h39.3l-3.8,30H140c-2.8,0-5,2.2-5,5v95h-30v-95c0-2.8-2.2-5-5-5H70v-30h30c2.8,0,5-2.2,5-5
	V66.8c0-15.7,4.6-27.2,12.4-34.9S136.3,20,150.7,20z"/>
</svg>
