<svg xmlns="http://www.w3.org/2000/svg" viewBox="0 0 140.68 67.52"><defs><style>.cls-1,.cls-26{fill:#a3a3a3;}.cls-2{fill:#020000;}.cls-3{fill:#241f20;}.cls-4{fill:#939495;}.cls-5{fill:#a8aab6;}.cls-18,.cls-19,.cls-20,.cls-6,.cls-9{fill:none;stroke-miterlimit:10;}.cls-6,.cls-9{stroke:#a8aab6;}.cls-6{stroke-width:1.03px;}.cls-7{fill:#cccdd3;}.cls-8{fill:#fff;}.cls-9{stroke-width:1.07px;}.cls-10{fill:#898989;}.cls-11{fill:#676368;}.cls-12{fill:#838284;}.cls-13{fill:#4f4f4f;}.cls-14{fill:#060f1d;}.cls-15{fill:#898e95;}.cls-16{fill:#2b2b2b;}.cls-17{fill:#2d2d2d;}.cls-18{stroke:#456a74;}.cls-19{stroke:#000;}.cls-20{stroke:#1d1d1b;stroke-width:0.5px;}.cls-21{fill:#112f38;}.cls-22{fill:#06141b;}.cls-23{fill:#43030e;}.cls-24{fill:#59081b;}.cls-25{fill:#870c2f;}.cls-26{font-size:11.54px;font-family:MyriadPro-Regular, Myriad Pro;}</style></defs><g id="Layer_2" data-name="Layer 2"><g id="Layer_1-2" data-name="Layer 1"><path class="cls-1" d="M99.35,61.3a7.73,7.73,0,0,1-1.2-.67,2.45,2.45,0,0,1-.79-2q0-6.94,0-13.88a1.26,1.26,0,0,0,0-.48c-.07-.13-.23-.29-.36-.29s-.28.17-.35.3a1.21,1.21,0,0,0,0,.47V58.59a2.44,2.44,0,1,1-4.86.35V33.8c0-.31.09-.74-.38-.74s-.39.41-.39.72Q91,38.87,91,44a1.56,1.56,0,0,1-1.91,1.64A1.59,1.59,0,0,1,87.83,44c0-1.9,0-3.79,0-5.68V31.34A3.93,3.93,0,0,1,92,27.17h10a3.91,3.91,0,0,1,4.13,4.14V43.89a1.58,1.58,0,0,1-1.91,1.7A1.52,1.52,0,0,1,103,44.06c0-1.26,0-2.53,0-3.79V33.81c0-.13,0-.3,0-.39a.75.75,0,0,0-.4-.35c-.09,0-.27.21-.34.36s0,.28,0,.43V58.3c0,1.77-.4,2.37-2,3Z"/><path class="cls-1" d="M97,25.42A4.42,4.42,0,1,1,101.41,21,4.41,4.41,0,0,1,97,25.42Z"/><polygon class="cls-1" points="62.81 17.96 64.83 21.46 66.85 24.96 62.81 24.96 58.77 24.96 60.79 21.46 62.81 17.96"/><path class="cls-2" d="M103.43,57.25A10.27,10.27,0,1,0,113.7,47,10.27,10.27,0,0,0,103.43,57.25Z"/><path class="cls-3" d="M104.38,57.25A10.27,10.27,0,1,0,114.65,47,10.27,10.27,0,0,0,104.38,57.25Zm3,0a7.32,7.32,0,1,1,7.32,7.32A7.33,7.33,0,0,1,107.33,57.25Z"/><path class="cls-4" d="M120.89,57.25a7.47,7.47,0,0,0-6.85-7.5c.21,0,.41,0,.62,0a7.53,7.53,0,1,1,0,15l-.62,0A7.48,7.48,0,0,0,120.89,57.25Z"/><path class="cls-5" d="M121.46,57.25c0-4-3.55-7.19-7.42-7.5.21,0,.41,0,.62,0a7.53,7.53,0,1,1,0,15l-.62,0C117.91,64.43,121.46,61.19,121.46,57.25Z"/><path class="cls-5" d="M113.77,56.46a1.19,1.19,0,1,0,1.68-.1A1.18,1.18,0,0,0,113.77,56.46Z"/><circle class="cls-6" cx="114.66" cy="57.25" r="7.53" transform="translate(-12.9 44.91) rotate(-21.01)"/><polygon class="cls-5" points="122.04 55.66 114.64 56.06 114.66 57.25 122.04 55.66"/><polygon class="cls-7" points="122.04 55.66 114.7 56.63 114.64 56.06 122.04 55.66"/><polygon class="cls-8" points="122.04 55.66 114.7 56.63 115.82 56.21 122.04 55.66"/><polygon class="cls-5" points="115.55 58.03 110.03 63.18 114.66 57.25 115.55 58.03"/><polygon class="cls-7" points="110.03 63.18 115.12 57.65 115.55 58.03 110.03 63.18"/><polygon class="cls-8" points="110.03 63.18 115.12 57.65 114.36 58.84 110.03 63.18"/><polygon class="cls-5" points="113.56 56.8 115.17 49.74 114.66 57.25 113.56 56.8"/><polygon class="cls-7" points="115.17 49.74 114.06 56.99 113.56 56.8 115.17 49.74"/><polygon class="cls-8" points="115.17 49.74 114.09 55.37 114.06 56.99 115.17 49.74"/><polygon class="cls-5" points="113.87 58.13 107.73 54.31 114.66 57.25 113.87 58.13"/><polygon class="cls-7" points="107.73 54.31 114.25 57.7 113.93 58.19 107.73 54.31"/><polygon class="cls-8" points="107.73 54.31 113.11 57.36 114.25 57.7 107.73 54.31"/><polygon class="cls-5" points="115.82 57 118.52 63.71 114.66 57.25 115.82 57"/><polygon class="cls-7" points="118.52 63.71 115.25 57.12 115.82 57 118.52 63.71"/><polygon class="cls-8" points="118.52 63.71 115.25 57.12 116.07 58.26 118.52 63.71"/><path class="cls-4" d="M114,56.66a.88.88,0,0,0,.07,1.25.89.89,0,1,0-.07-1.25Z"/><path class="cls-8" d="M114.2,56.84a.61.61,0,1,0,.87-.05A.61.61,0,0,0,114.2,56.84Z"/><circle class="cls-5" cx="114.66" cy="57.25" r="1.19"/><circle class="cls-6" cx="114.66" cy="57.25" r="7.53"/><polygon class="cls-5" points="119.13 51.16 113.86 56.37 114.66 57.25 119.13 51.16"/><polygon class="cls-7" points="119.13 51.16 114.28 56.76 113.86 56.37 119.13 51.16"/><polygon class="cls-8" points="119.13 51.16 114.28 56.76 114.84 55.7 119.13 51.16"/><polygon class="cls-5" points="115.85 57.25 115.15 64.76 114.66 57.25 115.85 57.25"/><polygon class="cls-7" points="115.15 64.76 115.27 57.25 115.85 57.25 115.15 64.76"/><polygon class="cls-8" points="115.15 64.76 115.27 57.25 115.5 58.64 115.15 64.76"/><polygon class="cls-5" points="113.54 57.65 110.05 51.3 114.66 57.25 113.54 57.65"/><polygon class="cls-7" points="110.05 51.3 114.05 57.45 113.54 57.65 110.05 51.3"/><polygon class="cls-8" points="110.05 51.3 112.99 56.22 114.05 57.45 110.05 51.3"/><polygon class="cls-5" points="114.66 58.43 107.53 59.66 114.66 57.25 114.66 58.43"/><polygon class="cls-7" points="107.53 59.66 114.66 57.86 114.74 58.43 107.53 59.66"/><polygon class="cls-8" points="107.53 59.66 113.57 58.36 114.66 57.86 107.53 59.66"/><polygon class="cls-5" points="115.36 56.29 121.84 59.52 114.66 57.25 115.36 56.29"/><polygon class="cls-7" points="121.84 59.52 115.02 56.76 115.36 56.29 121.84 59.52"/><polygon class="cls-8" points="121.84 59.52 115.02 56.76 116.39 57.07 121.84 59.52"/><circle class="cls-4" cx="114.66" cy="57.25" r="0.89"/><circle class="cls-8" cx="114.66" cy="57.25" r="0.61"/><path class="cls-2" d="M18.8,56.67A10.69,10.69,0,1,0,29.49,46,10.7,10.7,0,0,0,18.8,56.67Z"/><path class="cls-3" d="M19.8,56.67A10.69,10.69,0,1,0,30.48,46,10.69,10.69,0,0,0,19.8,56.67Zm3.06,0a7.62,7.62,0,1,1,7.62,7.62A7.62,7.62,0,0,1,22.86,56.67Z"/><circle class="cls-5" cx="30.49" cy="56.67" r="1.24"/><circle class="cls-9" cx="30.49" cy="56.67" r="7.83"/><polygon class="cls-5" points="38.18 55.02 30.47 55.44 30.49 56.67 38.18 55.02"/><polygon class="cls-7" points="38.18 55.02 30.54 56.04 30.47 55.44 38.18 55.02"/><polygon class="cls-8" points="38.18 55.02 30.54 56.04 31.7 55.59 38.18 55.02"/><polygon class="cls-5" points="31.42 57.49 25.68 62.85 30.49 56.67 31.42 57.49"/><polygon class="cls-7" points="25.68 62.85 30.97 57.1 31.42 57.49 25.68 62.85"/><polygon class="cls-8" points="25.68 62.85 30.97 57.1 30.18 58.34 25.68 62.85"/><polygon class="cls-5" points="29.35 56.21 31.02 48.86 30.49 56.67 29.35 56.21"/><polygon class="cls-7" points="31.02 48.86 29.87 56.41 29.35 56.21 31.02 48.86"/><polygon class="cls-8" points="31.02 48.86 29.9 54.72 29.87 56.41 31.02 48.86"/><polygon class="cls-5" points="29.67 57.6 23.28 53.61 30.49 56.67 29.67 57.6"/><polygon class="cls-7" points="23.28 53.61 30.07 57.15 29.73 57.65 23.28 53.61"/><polygon class="cls-8" points="23.28 53.61 28.88 56.79 30.07 57.15 23.28 53.61"/><polygon class="cls-5" points="31.7 56.41 34.51 63.4 30.49 56.67 31.7 56.41"/><polygon class="cls-7" points="34.51 63.4 31.1 56.54 31.7 56.41 34.51 63.4"/><polygon class="cls-8" points="34.51 63.4 31.1 56.54 31.96 57.73 34.51 63.4"/><path class="cls-4" d="M29.8,56.06a.92.92,0,0,0,1.38,1.23.92.92,0,1,0-1.38-1.23Z"/><path class="cls-8" d="M30,56.25a.64.64,0,0,0,.05.9.64.64,0,1,0,.85-.95A.63.63,0,0,0,30,56.25Z"/><circle class="cls-5" cx="30.49" cy="56.67" r="1.24"/><circle class="cls-9" cx="30.49" cy="56.67" r="7.83"/><polygon class="cls-5" points="35.14 50.33 29.66 55.76 30.49 56.67 35.14 50.33"/><polygon class="cls-7" points="35.14 50.33 30.1 56.17 29.66 55.76 35.14 50.33"/><polygon class="cls-8" points="35.14 50.33 30.1 56.17 30.68 55.06 35.14 50.33"/><polygon class="cls-5" points="31.73 56.67 31 64.49 30.49 56.67 31.73 56.67"/><polygon class="cls-7" points="31 64.49 31.13 56.67 31.73 56.67 31 64.49"/><polygon class="cls-8" points="31 64.49 31.13 56.67 31.36 58.13 31 64.49"/><polygon class="cls-5" points="29.33 57.09 25.69 50.48 30.49 56.67 29.33 57.09"/><polygon class="cls-7" points="25.69 50.48 29.86 56.89 29.33 57.09 25.69 50.48"/><polygon class="cls-8" points="25.69 50.48 28.75 55.6 29.86 56.89 25.69 50.48"/><polygon class="cls-5" points="30.49 57.91 23.07 59.18 30.49 56.67 30.49 57.91"/><polygon class="cls-7" points="23.07 59.18 30.49 57.31 30.57 57.91 23.07 59.18"/><polygon class="cls-8" points="23.07 59.18 29.36 57.84 30.49 57.31 23.07 59.18"/><polygon class="cls-5" points="31.22 55.68 37.96 59.04 30.49 56.67 31.22 55.68"/><polygon class="cls-7" points="37.96 59.04 30.86 56.17 31.22 55.68 37.96 59.04"/><polygon class="cls-8" points="37.96 59.04 30.86 56.17 32.29 56.49 37.96 59.04"/><circle class="cls-4" cx="30.49" cy="56.67" r="0.92"/><path class="cls-8" d="M29.86,56.67a.64.64,0,1,0,.63-.64A.64.64,0,0,0,29.86,56.67Z"/><path class="cls-1" d="M.59,47.78a3.51,3.51,0,0,0,1.67-2.33c.15-1.46-.07-6.69.73-7.13,0,0,.12-1,.26-1.89a11,11,0,0,1,.25-1.24c.22-.73,7,.58,10.77-1s15.18-7,27-8.24c11.51-1.22,22.46-2,35.8.47a15.37,15.37,0,0,1,2.31.6,53.66,53.66,0,0,1,5.68,2.31,166.4,166.4,0,0,1,16.54,9.13s15,.19,21.74,2.47c5.84.63,14.65,4.53,15.46,9.08.15.85.35,1.69.51,2.53h0l-2.78-.29s-2.63,4.42-3.28,5.31-1,2.47,3,2.36c1.52,0,2.45-.06,3,0,.94.08.87.3.87.78,0,.76-5.34,1.51-5.34,1.51a50.17,50.17,0,0,1-9.6.31l-1,0a11,11,0,0,0,1.14-4.9,11.15,11.15,0,1,0-22.3,0,11,11,0,0,0,1.14,4.9l-2.77.12S65.87,61.82,40.85,61a11.59,11.59,0,1,0-22-1c-.65,0-1.16-.11-1.51-.16a36.6,36.6,0,0,1-7-1.64,6.12,6.12,0,0,1-2-1s-4.75-3.81-6.56-3.88S.59,47.78.59,47.78Z"/><path class="cls-1" d="M139.77,60c.45.11.41.33.41.71,0,.76-5.34,1.51-5.34,1.51a50.17,50.17,0,0,1-9.6.31l-1,0a11.46,11.46,0,0,0,.54-1.3Z"/><path class="cls-1" d="M2.26,45.45c.15-1.46-.07-6.69.73-7.13,0,0,.12-1,.26-1.89a11,11,0,0,1,.25-1.24c.22-.73,7,.58,10.77-1l.8-.34a11.9,11.9,0,0,1,3.57,2.42,51.78,51.78,0,0,0,9.82,8L28,45.48A11.58,11.58,0,0,0,18.84,60c-.65,0-1.16-.11-1.51-.16a36.6,36.6,0,0,1-7-1.64,6.12,6.12,0,0,1-2-1s-4.75-3.81-6.56-3.88S.59,47.78.59,47.78A3.51,3.51,0,0,0,2.26,45.45Z"/><path class="cls-1" d="M2.26,45.45c.08-.78.05-2.63.13-4.25.68.26,9.93,3.94,11.35,9.06,1.09,4-5.29,4.28-9.73,3.9a5.77,5.77,0,0,0-2.18-.85C0,53.23.59,47.78.59,47.78A3.51,3.51,0,0,0,2.26,45.45Z"/><path class="cls-1" d="M6.21,43s3.35,6.39,2.64,8.42-5,2-5,2,4.58,1.31,6.3.92S13.94,52.72,6.21,43Z"/><path class="cls-1" d="M33,37.68s-9.94-.15-12.71-.12-5.71.27-5.68,0,1.62-.47,2.76-.47,4.11-.44,6.79-.42,9.32-.3,9.61.3S33.36,37.68,33,37.68Z"/><path class="cls-10" d="M103.66,44.6s-2.68,3.68.89,2.9.2,5.06-3.2,3.86-2.07-6.26-1.4-7.15S103.66,44.6,103.66,44.6Z"/><path class="cls-10" d="M118.07,45.2a14.57,14.57,0,0,0-13.52,2.3c-1.58,1.22-3,1.32-3.06-1.31s-3.35,4.39-.14,5.17C102.13,51.54,108.54,46,118.07,45.2Z"/><path class="cls-1" d="M100,38.89a10,10,0,0,1,1.3,4.09c.21,2.38.87,11-1.93,16.59l-34.93-.38a29.84,29.84,0,0,1,.79-6.42c.86-4,0-10.54,0-10.54a1.91,1.91,0,0,0,0-1.08,28,28,0,0,1-.52-2.88l14.85,1.07A127.41,127.41,0,0,0,100,38.89Z"/><path class="cls-10" d="M85.2,49.32c11.9,2.54,16.28-.88,16.28-.88h0c0,3.51-.49,7.85-2.14,11.12l-34.93-.38a29.84,29.84,0,0,1,.79-6.42,29.17,29.17,0,0,0,.3-7.18C73.41,47,80.85,48.39,85.2,49.32Z"/><path class="cls-10" d="M85.27,51.52c11.9,2.54,16.26-1.8,16.26-1.8l0-1.27c0,3.51-.49,7.85-2.14,11.12l-34.93-.38a29.84,29.84,0,0,1,.79-6.42,29.17,29.17,0,0,0,.3-7.18C73.41,47,80.92,50.59,85.27,51.52Z"/><path class="cls-1" d="M34.05,34.49h0c1.35,1,5.3,1.81,11.34,2.69a146.21,146.21,0,0,0,18.8.86,28,28,0,0,0,.52,2.88,1.91,1.91,0,0,1,0,1.08s.86,6.54,0,10.55A29.78,29.78,0,0,0,63.92,59s-10.11-.85-15.06-.76-5.72-.7-6.15-2.84A14.89,14.89,0,0,0,36.56,45.2C31.51,41.7,31.81,36.46,34.05,34.49Z"/><path class="cls-10" d="M33.92,42.06c3.11-1,18,1.18,31.58,3.53a29.17,29.17,0,0,1-.3,7.18,29.84,29.84,0,0,0-.79,6.42s-10.11-.84-15.06-.76-5.72-.69-6.15-2.84a14.91,14.91,0,0,0-6.15-10.17A9.9,9.9,0,0,1,33.92,42.06Z"/><path class="cls-1" d="M101.31,50.43s-.37,3.89-11.3,2.71-53-7.72-53-7.72,3.61,3.46,4.33,6.42a31.12,31.12,0,0,1,.87,7.35l58,2.66S105,52,101.31,50.43Z"/><path class="cls-10" d="M51,55.13s.3,2.42-2,2.46-.54-3.38-2.25-5.8a18.36,18.36,0,0,0-3-3.46s6.55,1.21,6.88,4Z"/><path class="cls-10" d="M74.07,57.68s.62.8-5.15,0-15-3-16.76-2.21S49.78,53.94,48.64,52s-3.24-2.82-3.39-3.43S76.53,56.09,74.07,57.68Z"/><path class="cls-1" d="M103.66,61.23s-36.16-1.07-44.42-1.5-14-1.06-14-1.06,6.15,0,7.63-1.13,10.17.5,15.47.81,34.89,1.36,34.89,1.36A5.54,5.54,0,0,0,103.66,61.23Z"/><path class="cls-11" d="M5.27,58.67a2.69,2.69,0,0,0,.09-1.27c-.17-.44-3.84-1-4-.58s.33,1.83,1.23,1.85Z"/><polygon class="cls-12" points="7.82 58.3 5.27 58.3 5.27 57.56 7.82 58.3"/><path class="cls-1" d="M14.48,59.3s-6.15.18-6.44,0-.22-1-.22-1-6.44-.87-6.65-1.68S1.84,56.33,1,55a5,5,0,0,1-.4-3.3Z"/><path class="cls-1" d="M11.11,52.57C11,51.36,6.21,43,6.21,43l6.53.7c3.84.41,9,1.15,9,1.15-1.35.57-2.3,2.91-2.3,2.91a17,17,0,0,1,13.87-3.69c8.17,1.56,9.54,8,9.83,10.81A5.78,5.78,0,0,0,43.71,57a3.34,3.34,0,0,0,2.8,1.73l57.15,2.5h0a11.86,11.86,0,0,0,.51,1.21l-2.77.12S65.87,61.82,40.85,61a11.59,11.59,0,1,0-22-1c-.65,0-1.16-.11-1.51-.16a36.6,36.6,0,0,1-7-1.64,6.12,6.12,0,0,1-2-1s-4.75-3.81-6.56-3.88c0,0,3.24.11,4.38.11S11.25,53.78,11.11,52.57Z"/><path class="cls-1" d="M101.4,62.56,40.85,61a10.86,10.86,0,0,0,.75-4.1A1.46,1.46,0,0,1,43,58c.22,1.11-.65,2.63,2.73,2.34S102.14,61,101.4,62.56Z"/><path class="cls-1" d="M37.58,30.44c-3.74-.68-9.37,1.64-11-1.15a70.89,70.89,0,0,1,14.68-3.36c11.51-1.22,22.46-2,35.8.47a15.37,15.37,0,0,1,2.31.6C73.14,29.09,53.94,33.45,37.58,30.44Z"/><path class="cls-1" d="M37.58,30.44s-9.26-.68-11,2.18-2.87,3.91-8.82,4A124.8,124.8,0,0,0,3,38.32s.12-1,.26-1.89a11,11,0,0,1,.25-1.24c.22-.73,7,.58,10.77-1,2-.83,6-2.68,11.07-4.45C29.9,29.4,34.28,29.51,37.58,30.44Z"/><path class="cls-13" d="M14.91,33.89a112.34,112.34,0,0,1,18.56-6.58s1.33,1-1.64,2S18.28,34,14.91,33.89Z"/><path class="cls-1" d="M15.41,38.32c2.33.82,2.88,1.65,0,2.13S8.12,42.82,5.24,42.58l-2.89-.24c0-1.84.17-3.76.64-4C3,38.32,13.07,37.5,15.41,38.32Z"/><path class="cls-1" d="M99.34,59.57a29.19,29.19,0,0,0,2-9.14s.85.18,4.43-2.86,9.7-3,12.81-2.24a13.09,13.09,0,0,1,5.6,3.49s8.9,1.13,10.69.94,3.11,1,3.11,1.41-1.4,1.06-1.4,1.06-2.63,4.42-3.28,5.31-1,2.47,3,2.36c1.52,0,2.45-.06,3,0a3.24,3.24,0,0,1,.46.07c-.13.31-.52.64-1.41.93-2.63.86-12.28.35-12.28.35l-1.35-.09a11.28,11.28,0,0,0,.6-3.6,11.15,11.15,0,1,0-22.3,0,11.28,11.28,0,0,0,.23,2.27Z"/><path class="cls-14" d="M124.39,43.82c2,.11,8.63.52,12,2.43A6.83,6.83,0,0,1,138.82,50c.15.85.35,1.69.51,2.53h0l-2.78-.29.22-.12a5.09,5.09,0,0,0,1.18-.94s.3-1.54-3.55-2.83A19,19,0,0,0,128.83,47a14.83,14.83,0,0,1-4.93-2.35C123,43.89,122.36,43.72,124.39,43.82Z"/><path class="cls-1" d="M136.3,59.9c-4,.11-3.67-1.47-3-2.36s3.28-5.31,3.28-5.31l2.33.24a.1.1,0,0,1,0,.05l.43,2.68h-.58l.29.74h-.51l.4,1.16h-.65l.53,1.68,1,1.17a3.24,3.24,0,0,0-.46-.07C138.75,59.84,137.82,59.85,136.3,59.9Z"/><path class="cls-15" d="M64.62,38.27s-11.27.22-18.8-.87S34,35.39,34,33.9,41.07,27.76,44.5,27s18.16-.83,18.16-.83Z"/><path class="cls-15" d="M100,38.89s-11.82,1.16-20.44.45-14.85-1.07-14.85-1.07l-2-12.09s10,.36,14.84,1.78S93.66,34.63,100,38.89Z"/><path class="cls-13" d="M98.09,38.49s-12.84-7.55-17.71-9A68.33,68.33,0,0,0,64.77,27l2.56,11s17.6,1.18,20.75,1.31A81,81,0,0,0,98.09,38.49Z"/><polygon class="cls-16" points="64.77 27.02 63.07 26.77 64.9 37.96 67.33 38.02 64.77 27.02"/><polygon class="cls-14" points="63.55 26.84 63.07 26.77 64.9 37.96 66.53 38 63.55 26.84"/><polygon class="cls-16" points="62.61 26.77 60.98 26.88 61.74 37.83 64.41 37.83 62.61 26.77"/><polygon class="cls-14" points="62.61 26.77 62.21 26.8 63.6 37.83 64.41 37.83 62.61 26.77"/><path class="cls-13" d="M61,26.88s-15.1-.44-17.78,1.52l.39,8.26s12.22,1.4,18.15,1.17Z"/><polygon class="cls-14" points="43.2 28.4 42.54 28.59 42.87 36.66 43.59 36.66 43.2 28.4"/><path class="cls-14" d="M42.54,28.59s-11.29,4.8-6.5,6.29l6.83,1.78Z"/><path class="cls-13" d="M42.54,28.59s-6.17,2.92-6.5,4.56,0,1.73,0,1.73l6.83,1.78Z"/><path class="cls-17" d="M64.77,27a68.33,68.33,0,0,1,15.61,2.47c4.87,1.46,17.71,9,17.71,9s-1.49.21-3.41.42c-3.3-1.88-16.59-9-29.29-9.22Z"/><path class="cls-17" d="M43.2,28.4c2.68-2,17.78-1.52,17.78-1.52l.2,2.82c-10.33,0-14.28.37-17.83,1.91Z"/><path class="cls-17" d="M36,33.15c.33-1.64,6.5-4.56,6.5-4.56l.13,3.34-.89.45a9.14,9.14,0,0,0-3.34,3.12L36,34.88S35.7,34.78,36,33.15Z"/><path class="cls-1" d="M128,59c3.91-.22,5.49-1.79,5.5-1.8-.1.16-.19.29-.26.38-.5.7-.84,1.84,1,2.22h0C127.69,61.23,125.71,59.09,128,59Z"/><path class="cls-10" d="M106.32,44.21a11.53,11.53,0,0,1-3.27.38c-1.66-.08-77.5-5-77.5-5Z"/><polygon class="cls-1" points="106.32 44.21 101.27 42.98 25.55 39.57 106.32 44.21"/><path class="cls-18" d="M34.54,34.72h0c1.35,1,5.3,1.81,11.34,2.68,7.53,1.09,18.8.87,18.8.87a28,28,0,0,0,.52,2.88,1.91,1.91,0,0,1,0,1.08s.86,6.54,0,10.54a29.84,29.84,0,0,0-.79,6.42s-10.11-.84-15.06-.76-5.72-.69-6.15-2.84a14.91,14.91,0,0,0-6.15-10.17C32,41.92,32.3,36.68,34.54,34.72Z"/><path class="cls-1" d="M34.62,42.08s.22,1.51,4.24,4.06,4.43,7.82,5,7.93,1.18-5.63-4.34-9.47S34.62,42.08,34.62,42.08Z"/><path class="cls-1" d="M43.72,41.89a15.78,15.78,0,0,1-6.29-.52c-3.48-1-3.78-.82-3.28,0s2.32,4.21,11.34,4.72c5.39.3,2.69-1.1.5-1.68-1.09-.29-.44-.53.1-.91S46.21,42.08,43.72,41.89Z"/><path class="cls-1" d="M3,38.32s.12-1,.26-1.89a11,11,0,0,1,.25-1.24c.22-.73,7,.58,10.76-1a9.83,9.83,0,0,0-2.76,1.89c-1.15,1.19-5.27.07-8.51,2.26Z"/><path class="cls-1" d="M3.39,35.65s3,.27,3.39.77-2.55.77-3.79,1.9H3s.12-1,.26-1.89C3.3,36.15,3.34,35.88,3.39,35.65Z"/><path class="cls-1" d="M2.19,45.84a8.61,8.61,0,0,0,2.71.29c.85-.13,2,.19,1.14.95a2.37,2.37,0,0,1-1.48.57l-4,.13A3.73,3.73,0,0,0,2.19,45.84Z"/><path class="cls-10" d="M117.6,41.22s-10.83-.86-13-.92-3.69-.28-3.47-.73,3-1.13,6.19-.92C107.32,38.65,107.47,39.57,117.6,41.22Z"/><path class="cls-18" d="M100,38.89a10,10,0,0,1,1.3,4.09,2.22,2.22,0,0,0,.19.57.79.79,0,0,1,0,.69.51.51,0,0,0-.06.25c.21,3.45.32,10.38-2,15.08l-34.93-.38a29.84,29.84,0,0,1,.79-6.42c.86-4,0-10.54,0-10.54a1.91,1.91,0,0,0,0-1.08,28,28,0,0,1-.52-2.88l14.85,1.07A127.41,127.41,0,0,0,100,38.89Z"/><path class="cls-1" d="M7.18,46.43s.57,1.34-1.84,1.66-4.25.09-4.41.77a5.58,5.58,0,0,1-.42,1.19l.08-2.27,4-.13S6.49,47.65,7.18,46.43Z"/><path class="cls-10" d="M6.21,43s9.44,8.13,8.92,11.3-13.3-1-13.3-1l5.73.15s3.63.22,3.55-.89S6.21,43,6.21,43Z"/><path class="cls-10" d="M103.9,51.18a12,12,0,0,0-1.56,8.57l-1.78-.11S101,54,103.9,51.18Z"/><polygon class="cls-1" points="102.23 61.16 94.98 61.49 73.45 59.91 95.38 60.44 102.23 61.16"/><path class="cls-1" d="M107.32,38.65h0c5,.27,12,.89,16,2.26,4.14.44,9.78,2.54,13,5.34a21.56,21.56,0,0,0-7.53-2A17.06,17.06,0,0,0,122,41.89C117.6,41.22,110.68,40.43,107.32,38.65Z"/><path class="cls-1" d="M37.05,45.42s-7.29-6-17.66,2.32C19.39,47.74,27.78,41.06,37.05,45.42Z"/><path class="cls-1" d="M19,48.24a21,21,0,0,0-1.74,4.53c-.32,1.81.34,5.89-2.09,5.81S12.23,58,12.23,58s3.14.5,3.49-1.1S15.54,53.52,19,48.24Z"/><path class="cls-10" d="M19,48.24a32.14,32.14,0,0,0-2.13,4.53c-1,2.66,0,5-1.7,5.45a8,8,0,0,1-7.33-3.33s7,4.69,7.53.93S19,48.24,19,48.24Z"/><path class="cls-1" d="M135.38,52.23l-10.12-1.55s2.25,2.14,1.34,7.39c0,0,2.62,0,2.29-1.72s-2.15-3.57-1.79-3.83S132,54.35,133.61,54A2.17,2.17,0,0,0,135.38,52.23Z"/><path class="cls-10" d="M122.61,43.8a55.69,55.69,0,0,0-7-1.35c-3.76-.48-12.51-.71-13.43-1.23s-1.09-.89-1.09-.89a6.52,6.52,0,0,0,3.16.89C106.53,41.43,120.59,42.41,122.61,43.8Z"/><path class="cls-19" d="M128.82,44.21s-3.24-2.16-11.22-3-10.28-2.57-10.28-2.57"/><polygon class="cls-10" points="139.2 54.37 135.68 53.68 135.47 54.02 138.75 55.2 139.34 55.2 139.2 54.37"/><polygon class="cls-10" points="138.53 55.94 134.9 54.96 134.59 55.47 138.28 57.1 138.93 57.1 138.53 55.94"/><polygon class="cls-10" points="138.46 57.64 134.19 56.13 133.81 56.72 138.81 58.78 138.46 57.64"/><path class="cls-10" d="M136,53.14h0s-2.06,4.13-2.19,4.45a1.45,1.45,0,0,0,.77,1.54,25,25,0,0,0,4.58.09h0l.6.73a3.24,3.24,0,0,0-.46-.07c-.56,0-1.49,0-3,0-4,.11-3.67-1.47-3-2.36C133.73,56.9,135.2,54.48,136,53.14Z"/><path class="cls-20" d="M21.83,40.62h5a.88.88,0,0,0,.85-.8l.21-2.67a.72.72,0,0,0-.72-.79H22.17a.86.86,0,0,0-.85.79l-.22,2.67A.73.73,0,0,0,21.83,40.62Z"/><ellipse class="cls-1" cx="39.36" cy="39.75" rx="2.42" ry="1.08"/><path class="cls-21" d="M41.78,40.56c0,.41.56.74,1.25.74s1.24-.33,1.24-.74-.56-.73-1.24-.73S41.78,40.16,41.78,40.56Z"/><ellipse class="cls-10" cx="39.36" cy="39.75" rx="2.11" ry="0.95"/><path class="cls-1" d="M43.75,40.16a.62.62,0,0,1-.16.82c-.46.31-6.57.29-7-.49a.5.5,0,0,1,.4-.85l2.92.51Z"/><path class="cls-10" d="M41.56,39.64s2.1.13,2.19.52c.28,1.35-8.18,1.06-6.8-.52A25.66,25.66,0,0,0,41.56,39.64Z"/><path class="cls-1" d="M41.56,39.64s2.15.13,2.19.52c.09.89-7.34.79-6.8-.52A25.66,25.66,0,0,0,41.56,39.64Z"/><path class="cls-1" d="M41.56,39.64s2.19.12,2.19.52-5.55.23-6.8-.52A25.66,25.66,0,0,0,41.56,39.64Z"/><ellipse class="cls-1" cx="69.08" cy="41.41" rx="2.42" ry="1.08"/><path class="cls-21" d="M71.5,42.23c0,.4.56.73,1.25.73S74,42.63,74,42.23s-.56-.73-1.24-.73S71.5,41.82,71.5,42.23Z"/><ellipse class="cls-10" cx="69.08" cy="41.41" rx="2.11" ry="0.95"/><path class="cls-10" d="M73.47,41.83a.62.62,0,0,1-.16.82c-.46.3-6.57.28-7-.5a.51.51,0,0,1,.4-.85l2.92.51Z"/><path class="cls-1" d="M71.28,41.3s2.1.14,2.19.53c.28,1.34-8.18,1.06-6.8-.53A24.75,24.75,0,0,0,71.28,41.3Z"/><path class="cls-1" d="M71.28,41.3s2.15.13,2.19.53c.09.89-7.34.78-6.8-.53A24.75,24.75,0,0,0,71.28,41.3Z"/><path class="cls-1" d="M71.28,41.3s2.19.13,2.19.53-5.55.22-6.8-.53A24.75,24.75,0,0,0,71.28,41.3Z"/><path class="cls-10" d="M94.14,41.83s-1.13,1-5.08.8,3-2.22,3-2.22Z"/><path class="cls-10" d="M94.14,41.45s-.83.75-3.75.59,2.2-1.63,2.2-1.63Z"/><path class="cls-1" d="M94.11,39.08A15.89,15.89,0,0,1,95.46,41c.07.3-1.55,1.55-3.8.73,0,0,.25-.73.38-1.27a3.63,3.63,0,0,0,.06-1.18Z"/><path class="cls-10" d="M94.11,39.08A15.89,15.89,0,0,1,95.46,41c0,.17-.46.65-1.32.88a12.66,12.66,0,0,0-.39-2.11c-.1-.25-.21-.3-.3-.54Z"/><path class="cls-1" d="M90.48,35.25a5.51,5.51,0,0,0-.17,1.53,2.2,2.2,0,0,0,.63,1.78,3,3,0,0,0,1.92.8c.86,0,1.67-.14,1.77-1.38S93.35,35,90.48,35.25Z"/><path class="cls-1" d="M90.47,35.25a5.2,5.2,0,0,0-.16,1.44,2.12,2.12,0,0,0,.59,1.68,2.87,2.87,0,0,0,1.81.75c.81.05,1.58-.13,1.67-1.3S93.18,35,90.47,35.25Z"/><path class="cls-1" d="M90.48,35.25a4.59,4.59,0,0,0-.13,1.23c0,.8.05,1,.33,1.23a7.05,7.05,0,0,0,1.07.11c.69,0,2,.63,2.08-.38S92.8,35,90.48,35.25Z"/><path class="cls-1" d="M90.52,35.28a3.34,3.34,0,0,0-.09.87,1.23,1.23,0,0,0,.36,1,1.65,1.65,0,0,0,1.08.45c.48,0,.94-.08,1-.78S92.15,35.14,90.52,35.28Z"/><path class="cls-22" d="M93.69,39.24a5.92,5.92,0,0,0-1.55-1.53,5.91,5.91,0,0,1,1.3,1.66C93.79,40.2,93.84,39.53,93.69,39.24Z"/><path class="cls-23" d="M136.48,47.16s-.77-1.6-5.78-2.26-5.32-.59-5.26-.2,2.12.73,2.7,1.34,2.33.72,3.67,1.12a21.94,21.94,0,0,1,4.67,1.73C137.24,49.46,137.31,48.4,136.48,47.16Z"/><path class="cls-24" d="M125.44,44.7c-.06-.39.24-.45,5.26.2a13.08,13.08,0,0,1,4.67,1.32c.48.73,1.09,1.94.11,2.15-1.11-.46-2.71-.93-3.67-1.21-1.34-.39-3.09-.52-3.67-1.12S125.5,45.1,125.44,44.7Z"/><path class="cls-25" d="M135.2,46.46a1.62,1.62,0,0,1,.47,1.06c0,.6-.47.41-.47.41s.23-.08.18-.56A7.58,7.58,0,0,0,135.2,46.46Z"/><path class="cls-23" d="M3.87,38.81A76.4,76.4,0,0,1,12,38.46c1.8.2.83,1.38-1.15,2.32a12.74,12.74,0,0,1-6.26,1.37c-1.86-.2-1.92-.1-1.8-.95S2.66,38.9,3.87,38.81Z"/><path class="cls-24" d="M3.77,39.09a68.73,68.73,0,0,1,7.4-.31c1.65.18.76,1.25-1,2.12a11.77,11.77,0,0,1-5.74,1.26c-1.71-.19-1.76-.1-1.65-.88S2.66,39.18,3.77,39.09Z"/><path class="cls-25" d="M11.09,39.57s0-.45-1-.45-6.72.17-7,1-.09.83-.09.83-.48-.59.29-1.23S12,38.09,11.09,39.57Z"/><path class="cls-18" d="M.59,47.78a3.51,3.51,0,0,0,1.67-2.33c.15-1.46-.07-6.69.73-7.13,0,0,.12-1,.26-1.89a11,11,0,0,1,.25-1.24c.22-.73,7,.58,10.77-1s15.18-7,27-8.24c11.51-1.22,22.46-2,35.8.47a15.37,15.37,0,0,1,2.31.6,53.66,53.66,0,0,1,5.68,2.31,166.4,166.4,0,0,1,16.54,9.13s15,.19,21.74,2.47c5.84.63,14.65,4.53,15.46,9.08.15.85.35,1.69.51,2.53h0l-2.78-.29s-2.63,4.42-3.28,5.31-1,2.47,3,2.36c1.52,0,2.45-.06,3,0,.94.08.87.3.87.78,0,.76-5.34,1.51-5.34,1.51a50.17,50.17,0,0,1-9.6.31l-1,0a11,11,0,0,0,1.14-4.9,11.15,11.15,0,1,0-22.3,0,11,11,0,0,0,1.14,4.9l-2.77.12S65.87,61.82,40.85,61a11.59,11.59,0,1,0-22-1c-.65,0-1.16-.11-1.51-.16a36.6,36.6,0,0,1-7-1.64,6.12,6.12,0,0,1-2-1s-4.75-3.81-6.56-3.88S.59,47.78.59,47.78Z"/><path class="cls-1" d="M125.26,50.68s-4.27-5.91-11.05-5.43A23.58,23.58,0,0,0,106.52,47a15.15,15.15,0,0,1,12-1.65C124.36,47.12,125.26,50.68,125.26,50.68Z"/><path class="cls-10" d="M126.51,53.14A14.23,14.23,0,0,1,127.1,57a3.64,3.64,0,0,1-.59,2.38A17.12,17.12,0,0,0,126.51,53.14Z"/><text class="cls-26" transform="translate(115.15 11.81)">?</text><path class="cls-1" d="M120,13.67a3.52,3.52,0,0,1-6.37.79,9,9,0,0,1-1,.3,2.67,2.67,0,0,1-3.12-2.49.37.37,0,0,0-.16-.29,5.63,5.63,0,0,1-2.17-5.08,5.58,5.58,0,0,1,2.49-4.25c.26-.18.45-.18.58,0s0,.37-.2.54a5.12,5.12,0,0,0-.16,8.35.62.62,0,0,1,.29.56,2,2,0,0,0,3.19,1.64c.37-.25.51-.23.71.17a2.83,2.83,0,0,0,5.32-.79c.07-.41.31-.5.64-.24a2,2,0,0,0,3.07-.65c.12-.23.26-.32.43-.26a.34.34,0,0,1,.19.51A2.66,2.66,0,0,1,121.77,14a2.57,2.57,0,0,1-1.68-.24Z"/><path class="cls-1" d="M123.85,4.27a3.93,3.93,0,0,1,1.67.29,3.75,3.75,0,0,1-1,7.18,6,6,0,0,1-.85,0c-.29,0-.42-.14-.41-.36s.18-.33.48-.3a3,3,0,0,0,2-.52A3.08,3.08,0,0,0,123.62,5h-.11c-.39.06-.56-.14-.43-.53a2.69,2.69,0,0,0,.07-1.66,2.82,2.82,0,0,0-4.64-1.35c-.26.23-.36.24-.64,0a2,2,0,0,0-3.13.75c-.13.29-.22.33-.53.27s-.82-.12-1.24-.16c-.24,0-.39-.15-.38-.35a.33.33,0,0,1,.39-.32c.35,0,.7.07,1.06.11a.21.21,0,0,0,.24-.09,2.66,2.66,0,0,1,3.84-.85.05.05,0,0,1,0,0,3.42,3.42,0,0,1,4.11-.26A3.41,3.41,0,0,1,123.85,4.27Z"/><path class="cls-1" d="M108.72,18.3a1.68,1.68,0,1,1,1.69-1.68A1.68,1.68,0,0,1,108.72,18.3Zm0-.67a1,1,0,0,0,1-1,1,1,0,1,0-1,1Z"/><path class="cls-1" d="M104.87,17.67a.94.94,0,0,1,0,1.87,1,1,0,0,1-.95-.94A.94.94,0,0,1,104.87,17.67Zm.26.94a.27.27,0,1,0-.53,0,.27.27,0,0,0,.26.26A.27.27,0,0,0,105.13,18.61Z"/><path class="cls-1" d="M112.06,2.11a.35.35,0,0,1-.26.32l-.76.23a.33.33,0,0,1-.41-.19A.32.32,0,0,1,110.8,2c.29-.1.58-.19.87-.26A.33.33,0,0,1,112.06,2.11Z"/></g></g></svg>