<?xml version="1.0" encoding="utf-8"?>
<!-- Generator: Adobe Illustrator 25.2.0, SVG Export Plug-In . SVG Version: 6.00 Build 0)  -->
<svg version="1.1" id="Layer_1" xmlns="http://www.w3.org/2000/svg" xmlns:xlink="http://www.w3.org/1999/xlink" x="0px" y="0px"
	 viewBox="0 0 24 24" style="enable-background:new 0 0 24 24;" xml:space="preserve">
<style type="text/css">
	.st0{fill:none;}
</style>
<path class="st0" d="M0,0h24v24H0V0z"/>
<path d="M12,12c2.2,0,4-1.8,4-4s-1.8-4-4-4S8,5.8,8,8S9.8,12,12,12z M12,14c-2.7,0-8,1.3-8,4v2h16v-2C20,15.3,14.7,14,12,14z"/>
<g>
	<path d="M18.6,8.3c0-0.3,0-0.5,0-0.7s0.1-0.3,0.1-0.5s0.1-0.3,0.3-0.4s0.3-0.3,0.5-0.5C19.8,6,20,5.8,20.2,5.5s0.3-0.4,0.3-0.6
		s0.1-0.4,0.1-0.6c0-0.4-0.1-0.7-0.3-1S19.7,3,19.3,3c-0.4,0-0.7,0.1-0.9,0.3S18,3.8,18,4.1h-1.1l0,0c0-0.4,0.1-0.8,0.3-1.1
		s0.5-0.6,0.9-0.7S18.8,2,19.3,2c0.8,0,1.4,0.2,1.8,0.6s0.6,0.9,0.6,1.6c0,0.3-0.1,0.6-0.2,0.9S21.3,5.7,21.1,6s-0.5,0.6-0.8,0.9
		c-0.1,0.1-0.2,0.3-0.3,0.4s-0.1,0.2-0.1,0.4s0,0.3,0,0.6H18.6z M18.6,10.7V9.5h1.2v1.2H18.6z"/>
</g>
</svg>
