<?xml version="1.0" encoding="utf-8"?>
<!-- Generator: Adobe Illustrator 25.2.0, SVG Export Plug-In . SVG Version: 6.00 Build 0)  -->
<svg version="1.1" id="Layer_1" xmlns="http://www.w3.org/2000/svg" xmlns:xlink="http://www.w3.org/1999/xlink" x="0px" y="0px"
	 viewBox="0 0 250 250" style="enable-background:new 0 0 250 250;" xml:space="preserve">
<style type="text/css">
	.st0{fill:#FB9933;}
</style>
<path class="st0" d="M80,15c-35.7,0-65,29.3-65,65v90c0,35.7,29.3,65,65,65h90c35.7,0,65-29.3,65-65V80c0-35.7-29.3-65-65-65H80z
	 M80,25h90c30.3,0,55,24.7,55,55v90c0,30.3-24.7,55-55,55H80c-30.3,0-55-24.7-55-55V80C25,49.7,49.7,25,80,25z M185,55
	c-5.5,0-10,4.5-10,10s4.5,10,10,10s10-4.5,10-10S190.5,55,185,55z M125,70c-30.2,0-55,24.8-55,55s24.8,55,55,55s55-24.8,55-55
	S155.2,70,125,70z M125,80c24.8,0,45,20.2,45,45s-20.2,45-45,45s-45-20.2-45-45S100.2,80,125,80z"/>
</svg>
