<?xml version="1.0" encoding="utf-8"?>
<!-- Generator: Adobe Illustrator 25.2.0, SVG Export Plug-In . SVG Version: 6.00 Build 0)  -->
<svg version="1.1" id="Layer_1" xmlns="http://www.w3.org/2000/svg" xmlns:xlink="http://www.w3.org/1999/xlink" x="0px" y="0px"
	 viewBox="0 0 48 48" style="enable-background:new 0 0 48 48;" xml:space="preserve">
<style type="text/css">
	.st0{fill:#FB9933;}
</style>
<path class="st0" d="M24,23.5c1,0,1.8-0.3,2.5-1c0.7-0.7,1-1.5,1-2.5s-0.3-1.8-1-2.5c-0.7-0.7-1.5-1-2.5-1s-1.8,0.3-2.5,1
	c-0.7,0.7-1,1.5-1,2.5s0.3,1.8,1,2.5C22.2,23.2,23,23.5,24,23.5z M24,40c4.4-4,7.7-7.7,9.8-11s3.2-6.2,3.2-8.7
	c0-3.9-1.3-7.1-3.8-9.6S27.6,7,24,7s-6.7,1.2-9.2,3.8S11,16.5,11,20.4c0,2.5,1.1,5.4,3.2,8.7S19.7,36,24,40z M24,44
	c-5.4-4.6-9.4-8.8-12-12.7s-4-7.5-4-10.9c0-5,1.6-9,4.8-11.9S19.8,4,24,4s8,1.5,11.2,4.4S40,15.4,40,20.4c0,3.3-1.3,7-4,10.9
	S29.4,39.4,24,44z"/>
</svg>
