<?xml version="1.0" encoding="utf-8"?>
<!-- Generator: Adobe Illustrator 25.2.0, SVG Export Plug-In . SVG Version: 6.00 Build 0)  -->
<svg version="1.1" id="Layer_1" xmlns="http://www.w3.org/2000/svg" xmlns:xlink="http://www.w3.org/1999/xlink" x="0px" y="0px"
	 viewBox="0 0 48 48" style="enable-background:new 0 0 48 48;" xml:space="preserve">
<style type="text/css">
	.st0{fill:#FB9933;}
</style>
<path class="st0" d="M7.1,40.3c-0.9,0-1.7-0.3-2.4-1s-1-1.5-1-2.4V11.1c0-0.9,0.3-1.7,1-2.4s1.5-1,2.4-1h33.8c0.9,0,1.7,0.3,2.4,1
	c0.7,0.7,1,1.5,1,2.4v25.8c0,0.9-0.3,1.7-1,2.4c-0.7,0.7-1.5,1-2.4,1H7.1z M24,25.3L7.1,14.1v22.8h33.8V14.1L24,25.3z M24,22
	l16.7-10.9H7.3L24,22z M7.1,14.1v-3v25.8V14.1z"/>
</svg>
