<svg xmlns="http://www.w3.org/2000/svg" viewBox="0 0 18.12 24.46"><defs><style>.cls-1{fill:#fff;}</style></defs><g id="Layer_2" data-name="Layer 2"><g id="Layer_1-2" data-name="Layer 1"><path class="cls-1" d="M7,0V3c-.46.06-1,.14-1.5.19s-.31-.26-.27-.45A4.82,4.82,0,0,1,6.71.1L6.8,0Z"/><path class="cls-1" d="M11.29,0a5,5,0,0,1,1.57,2.63c.14.49,0,.58-.53.48A8.69,8.69,0,0,0,11.1,3V0Z"/><path class="cls-1" d="M10.21,12.46c1.16,0,1.22.16,1.72,1,.14.23.27.47.39.71.86,1.74,1.7,3.5,2.57,5.24a3.89,3.89,0,0,1,.34,3,2.68,2.68,0,0,1-2.74,2h0c-.32-.06-.8-.17-1.28-.23a1.68,1.68,0,0,0-.8.11,3.73,3.73,0,0,1-2.73,0,1.92,1.92,0,0,0-1.16,0,2.78,2.78,0,0,1-3-.67,3.18,3.18,0,0,1-.69-3.14,4.85,4.85,0,0,1,.35-.92q1.24-2.6,2.52-5.16a7.84,7.84,0,0,1,.66-1.12A1.65,1.65,0,0,1,8,12.46"/><path class="cls-1" d="M4,7.51a3.67,3.67,0,0,1,1-3A3,3,0,0,1,5.77,4a1.18,1.18,0,0,1,1.69.58A10.27,10.27,0,0,1,8.1,6.6c.14.65.17,1.32.25,2a2.63,2.63,0,0,1-1.9,2.6A1.62,1.62,0,0,1,5.57,11,2.73,2.73,0,0,1,4.11,8.75C4.05,8.27,4,7.79,4,7.51Z"/><path class="cls-1" d="M14.1,7.59c0,.31-.11.88-.18,1.45a2.54,2.54,0,0,1-1.46,2,1.45,1.45,0,0,1-.84.17A2.61,2.61,0,0,1,9.74,8.84a34.4,34.4,0,0,1,.53-3.48,1.65,1.65,0,0,1,1.21-1.5,2,2,0,0,1,1.83.82A4.06,4.06,0,0,1,14.1,7.59Z"/><path class="cls-1" d="M14.08,12.91a5.22,5.22,0,0,1,.9-2.5,1.37,1.37,0,0,1,2.43-.09A3.54,3.54,0,0,1,17.78,14a4.27,4.27,0,0,1-.93,1.37,1.28,1.28,0,0,1-2-.06A3.12,3.12,0,0,1,14.08,12.91Z"/><path class="cls-1" d="M4,13a3,3,0,0,1-.84,2.34,1.29,1.29,0,0,1-1.84.09,4,4,0,0,1-.85-4.88,1.53,1.53,0,0,1,1.77-.85,1.94,1.94,0,0,1,.79.62A5.17,5.17,0,0,1,4,13Z"/><path class="cls-1" d="M1.77,6.44c0,.56.05,1.1.08,1.63a2.33,2.33,0,0,0,.08.36c.09.36,0,.5-.41.56A4.46,4.46,0,0,0,.4,9.46C0,8.9.91,6.71,1.77,6.44Z"/><path class="cls-1" d="M17.73,9.42c-.49-.16-1-.3-1.41-.48a.32.32,0,0,1-.18-.27c.06-.73.15-1.45.23-2.25.5.16.7.64.93,1.07C17.87,8.57,18,9.08,17.73,9.42Z"/></g></g></svg>