<?xml version="1.0" encoding="utf-8"?>
<!-- Generator: Adobe Illustrator 25.2.0, SVG Export Plug-In . SVG Version: 6.00 Build 0)  -->
<svg version="1.1" id="Layer_1" xmlns="http://www.w3.org/2000/svg" xmlns:xlink="http://www.w3.org/1999/xlink" x="0px" y="0px"
	 viewBox="0 0 48 48" style="enable-background:new 0 0 48 48;" xml:space="preserve">
<style type="text/css">
	.st0{fill:#FB9933;}
</style>
<path class="st0" d="M39.8,42c-4.1,0-8.1-1-12.1-3s-7.6-4.6-10.8-7.8C13.6,28,11,24.4,9,20.4S6,12.3,6,8.2c0-0.6,0.2-1.2,0.7-1.6
	S7.6,6,8.2,6h7c0.5,0,0.9,0.2,1.2,0.5c0.3,0.3,0.6,0.7,0.7,1.3l1.4,6.3c0.1,0.5,0.1,0.9,0,1.3c-0.1,0.4-0.3,0.7-0.5,1l-5,5
	c1.9,3.1,4,5.8,6.3,8.1s4.9,4.3,7.9,5.9l4.8-4.9c0.3-0.4,0.7-0.6,1.1-0.8s0.9-0.2,1.3-0.1l6,1.3c0.5,0.1,0.9,0.3,1.2,0.8
	C41.8,32,42,32.5,42,33v6.8c0,0.6-0.2,1.2-0.7,1.6C40.9,41.8,40.4,42,39.8,42z M11.5,18.6l4.1-4.1L14.4,9H9c0,1.3,0.2,2.7,0.6,4.3
	S10.6,16.6,11.5,18.6z M29.9,36.8c1.4,0.6,2.9,1.1,4.4,1.5c1.6,0.4,3.2,0.6,4.7,0.7v-5.3l-5.2-1L29.9,36.8z"/>
</svg>
