<?xml version="1.0" encoding="utf-8"?>
<!-- Generator: Adobe Illustrator 25.2.0, SVG Export Plug-In . SVG Version: 6.00 Build 0)  -->
<svg version="1.1" id="Layer_1" xmlns="http://www.w3.org/2000/svg" xmlns:xlink="http://www.w3.org/1999/xlink" x="0px" y="0px"
	 viewBox="0 0 250 250" style="enable-background:new 0 0 250 250;" xml:space="preserve">
<style type="text/css">
	.st0{fill:#FB9933;}
</style>
<path class="st0" d="M171,28c-29.7,0-54,24.3-54,54c0,1.9,0.1,3.7,0.4,5.5c-36.7-3.5-69.6-22.2-92-49.2c-1-1.2-2.4-1.8-4-1.8
	c-1.8,0-3.4,1-4.2,2.5c-4.4,7.7-7.2,17-7.2,27c0,11.8,4.1,22.6,10.6,31.6c-1.2-0.5-2.7-0.4-3.9-1c-2.5-1.2-5.5-0.2-6.7,2.2
	c-0.3,0.7-0.5,1.5-0.5,2.2v0.5c0,18.5,9.5,34.3,23.6,44.1c-0.3,0-0.5,0-0.8-0.1c-2.7-0.5-5.3,1.4-5.8,4.1c-0.1,0.8-0.1,1.6,0.2,2.4
	c5.8,17.4,20,31.2,37.9,35.8C50.6,196.1,34.4,201,17,201c-4,0-7.8,0-10.8-0.4c-2.7-0.4-5.3,1.5-5.7,4.2c-0.3,1.9,0.6,3.9,2.3,4.9
	C25.6,224.2,52,232.5,81,232.5c46.6,0,83.2-19.5,107.7-47.3S226,121.3,226,87.5v-4.2c9.1-7,17.3-15.2,23.7-25
	c1.5-2.3,0.8-5.4-1.5-6.9c-1.4-0.9-3.2-1.1-4.8-0.4c-2.6,1.2-5.7,1.4-8.4,2.4c3.5-4.7,6.5-9.8,8.2-15.3c0.8-2.6-0.6-5.4-3.3-6.3
	c-1.3-0.4-2.8-0.3-4,0.4c-8.5,4.9-17.9,8.5-28.2,10.9C198,34,185.2,28,171,28z M171,38c12.6,0,24.3,5.4,32.4,13.9
	c1.2,1.3,3,1.8,4.7,1.4c6.6-1.4,12.8-3.5,18.9-5.9c-3.5,4.6-7.6,8.8-12.5,11.7c-2.4,1.4-3.2,4.5-1.7,6.9c1,1.8,3,2.7,5.1,2.4
	c4.9-0.7,9.5-2.7,14.2-4c-4.3,4.6-8.9,8.8-13.9,12.5c-1.3,0.9-2,2.4-2,4v6.5c0,31.2-12,65.2-34.8,91.1S124.9,222.5,81,222.5
	c-20.3,0-39.1-4.3-56.2-12.2c21.1-1.6,40.4-9.2,56.2-21.3c2.2-1.7,2.6-4.8,0.9-7c-0.1-0.2-0.3-0.4-0.5-0.5c-1-1.2-2.4-2-4-1.9
	c-16.3,0-30-9.6-37.4-23.1c0.3,0,0.6,0.1,0.9,0.1c4.9,0,9.7-0.5,14.2-1.7c2.7-0.7,4.3-3.4,3.6-6.1c-0.5-1.8-1.9-3.3-3.8-3.7
	c-17.9-4-31.3-18.3-34.3-36.4c5.1,1.7,10.4,3,15.9,3.3c2.8,0.2,5.1-1.9,5.3-4.7c0.1-1.8-0.7-3.5-2.2-4.5C27.6,94.7,20,81.3,20,66
	c0-5.6,1.4-10.9,3.3-15.8C48.4,77.5,83.5,96.1,122.8,98c0.2,0,0.3,0,0.5,0c0,0,0,0,0,0c2.8,0.1,5.1-2,5.2-4.8c0-0.5,0-1.1-0.2-1.6
	c-0.9-3.1-1.3-6-1.3-9.6C127,57.7,146.7,38,171,38z"/>
</svg>
